<?xml version="1.0" standalone="no"?>
<!DOCTYPE svg PUBLIC "-//W3C//DTD SVG 20010904//EN"
 "http://www.w3.org/TR/2001/REC-SVG-20010904/DTD/svg10.dtd">
<svg version="1.0" xmlns="http://www.w3.org/2000/svg"
 width="600.000000pt" height="600.000000pt" viewBox="0 0 600.000000 600.000000"
 preserveAspectRatio="xMidYMid meet">
<metadata>
Created by potrace 1.11, written by Peter Selinger 2001-2013
</metadata>
<g transform="translate(0.000000,600.000000) scale(0.100000,-0.100000)"
fill="#000000" stroke="none">
<path d="M1276 3915 c-84 -22 -151 -78 -188 -160 l-22 -50 0 -675 0 -675 24
-49 c28 -59 86 -119 137 -143 34 -16 84 -18 468 -23 l430 -5 1 -162 c0 -90 -2
-164 -5 -164 -3 -1 -121 -2 -262 -3 -279 -1 -289 -3 -289 -57 0 -60 -13 -59
617 -59 555 0 574 1 593 20 22 22 19 58 -8 80 -16 13 -59 16 -276 15 l-256 0
0 167 0 168 403 1 c221 0 414 2 428 4 49 6 120 48 159 93 72 82 71 66 68 818
-3 634 -4 671 -22 704 -36 67 -77 109 -134 137 l-57 28 -884 0 c-591 0 -897
-3 -925 -10z m1826 -123 c20 -13 47 -40 60 -60 l23 -37 0 -667 0 -666 -31 -39
c-63 -79 9 -73 -985 -71 l-886 3 -35 27 c-74 56 -71 26 -71 743 0 461 3 651
12 676 13 42 53 82 97 101 25 10 208 13 905 13 l875 -1 36 -22z"/>
<path d="M1924 3395 c-54 -27 -98 -78 -113 -133 -13 -43 -5 -125 15 -164 9
-18 87 -103 173 -190 120 -122 162 -158 182 -158 33 0 335 300 362 360 35 78
20 169 -37 237 -37 44 -80 64 -151 70 -53 4 -67 1 -120 -26 -33 -16 -62 -26
-65 -22 -13 20 -79 44 -135 48 -50 4 -68 0 -111 -22z m149 -96 c12 -7 39 -27
60 -46 45 -40 64 -38 119 14 27 27 47 37 82 40 42 5 48 3 81 -30 36 -36 44
-71 26 -119 -7 -18 -124 -140 -257 -268 -9 -8 -246 235 -260 268 -22 50 4 124
50 142 30 13 74 12 99 -1z"/>
<path d="M3990 3881 c-27 -7 -30 -21 -45 -210 -4 -47 -8 -92 -10 -100 -1 -9
-6 -56 -10 -105 -4 -49 -8 -96 -10 -105 -1 -9 -6 -50 -9 -91 -14 -157 -17
-164 -91 -203 -37 -19 -75 -24 -212 -27 -26 0 -41 -30 -36 -72 5 -46 11 -61
21 -54 4 2 39 7 77 10 39 4 97 9 130 13 112 11 101 21 96 -92 -7 -151 -6 -352
2 -426 15 -144 78 -279 155 -332 51 -36 77 -44 150 -46 135 -5 243 81 278 224
7 28 13 42 13 32 2 -39 45 -144 74 -184 18 -23 55 -55 82 -70 46 -26 58 -28
155 -28 92 1 113 4 172 29 120 50 188 115 188 179 l0 29 -52 -47 c-87 -76
-145 -99 -252 -100 -92 0 -120 10 -172 60 -18 17 -51 86 -62 130 -22 82 -24
106 -28 385 -5 352 -15 406 -67 368 -21 -16 -24 -40 -32 -218 -4 -80 -9 -163
-11 -185 -2 -22 -4 -87 -4 -145 -1 -73 -6 -110 -15 -120 -8 -8 -32 -52 -55
-98 -34 -67 -49 -86 -84 -107 -23 -13 -62 -27 -86 -30 -23 -3 -46 -7 -49 -10
-16 -9 -87 44 -117 87 -32 48 -74 160 -93 253 -17 81 -7 309 17 380 39 115 44
125 77 130 72 12 93 15 145 20 30 3 64 8 76 10 11 2 45 7 75 11 30 3 57 9 60
13 4 3 10 23 13 44 l7 38 -88 -5 c-224 -13 -289 -18 -309 -21 -45 -7 -47 2
-41 177 4 89 9 172 11 183 8 41 21 243 21 335 0 102 -2 106 -55 91z"/>
<path d="M4542 3440 c-12 -5 -29 -25 -39 -44 -15 -32 -15 -36 1 -60 13 -20 25
-26 54 -26 53 0 82 23 82 65 0 24 -7 39 -26 54 -29 23 -38 24 -72 11z"/>
</g>
</svg>
